<svg version="1.2" xmlns="http://www.w3.org/2000/svg" viewBox="0 0 44 28" width="44" height="28">
  <path fill="#fff" d="m3 0c-1.6 0-3 1.4-3 3v6.1q0 0.2 0.1 0.3 0 0.2 0.1 0.3 0.1 0.2 0.3 0.3 0.1 0 0.3 0.1c1.9 0.4 3.2 2 3.2 3.9 0 1.9-1.3 3.5-3.2 3.9q-0.2 0.1-0.3 0.1-0.2 0.1-0.3 0.3-0.1 0.1-0.1 0.3-0.1 0.1-0.1 0.3v6.1c0 1.6 1.4 3 3 3h38c1.6 0 3-1.4 3-3v-6.1q0-0.2-0.1-0.3 0-0.2-0.1-0.3-0.1-0.2-0.3-0.3-0.1 0-0.3-0.1c-1.9-0.4-3.2-2-3.2-3.9 0-1.9 1.3-3.5 3.2-3.9q0.2-0.1 0.3-0.1 0.2-0.1 0.3-0.3 0.1-0.1 0.1-0.3 0.1-0.1 0.1-0.3v-6.1c0-1.6-1.4-3-3-3h-29zm0 2h8v3q0 0.2 0.1 0.4 0.1 0.2 0.2 0.3 0.1 0.1 0.3 0.2 0.2 0.1 0.4 0.1 0.2 0 0.4-0.1 0.2-0.1 0.3-0.2 0.1-0.1 0.2-0.3 0.1-0.2 0.1-0.4v-3h28c0.6 0 1 0.4 1 1v5.4c-2.3 0.9-4 3.1-4 5.6 0 2.5 1.7 4.7 4 5.6v5.4c0 0.6-0.4 1-1 1h-28v-3.1q0-0.1-0.1-0.3-0.1-0.2-0.2-0.4-0.1-0.1-0.3-0.2-0.2-0.1-0.4-0.1-0.2 0-0.4 0.1-0.2 0.1-0.3 0.2-0.1 0.2-0.2 0.4-0.1 0.2-0.1 0.3v3.1h-8c-0.6 0-1-0.4-1-1v-5.4c2.3-0.9 4-3.1 4-5.6 0-2.5-1.7-4.7-4-5.6v-5.4c0-0.6 0.4-1 1-1z"/>
  <path fill="#fff" d="m12 15q-0.2 0-0.4 0.1-0.2 0.1-0.3 0.2-0.1 0.1-0.2 0.3-0.1 0.2-0.1 0.4v3q0 0.2 0.1 0.4 0.1 0.2 0.2 0.3 0.1 0.1 0.3 0.2 0.2 0.1 0.4 0.1 0.2 0 0.4-0.1 0.2-0.1 0.3-0.2 0.1-0.1 0.2-0.3 0.1-0.2 0.1-0.4v-3q0-0.2-0.1-0.4-0.1-0.2-0.2-0.3-0.1-0.1-0.3-0.2-0.2-0.1-0.4-0.1z"/>
  <path fill="#fff" d="m12 8q-0.2 0-0.4 0.1-0.2 0.1-0.3 0.2-0.1 0.1-0.2 0.3-0.1 0.2-0.1 0.4v2.9q0 0.2 0.1 0.4 0.1 0.2 0.2 0.4 0.1 0.1 0.3 0.2 0.2 0 0.4 0 0.2 0 0.4 0 0.2-0.1 0.3-0.2 0.1-0.2 0.2-0.4 0.1-0.2 0.1-0.4v-2.9q0-0.2-0.1-0.4-0.1-0.2-0.2-0.3-0.1-0.1-0.3-0.2-0.2-0.1-0.4-0.1z"/>
  <path fill="#fff" d="m22 6c-1.6 0-3 1.4-3 3 0 1.7 1.4 3 3 3 1.7 0 3-1.3 3-3 0-1.6-1.3-3-3-3zm0 2c0.6 0 1 0.4 1 1 0 0.6-0.4 1-1 1-0.6 0-1-0.4-1-1 0-0.6 0.4-1 1-1z"/>
  <path fill="#fff" d="m30 16c-1.6 0-3 1.3-3 3 0 1.6 1.4 3 3 3 1.6 0 3-1.4 3-3 0-1.7-1.4-3-3-3zm0 2c0.6 0 1 0.4 1 1 0 0.6-0.4 1-1 1-0.6 0-1-0.4-1-1 0-0.6 0.4-1 1-1z"/>
  <path fill="#fff" d="m31.3 7.3l-12 12c-0.4 0.4-0.4 1 0 1.4 0.4 0.4 1 0.4 1.4 0l12-12c0.4-0.4 0.4-1 0-1.4-0.4-0.4-1-0.4-1.4 0z"/>
</svg>
